<svg width="22" height="26" viewBox="0 0 22 26" fill="none" xmlns="http://www.w3.org/2000/svg">
<path d="M21.4011 6.656C18.2053 4.6228 15.0253 2.5584 11.84 0.5044C11.5856 0.338 11.3206 0.182 11.0239 0C10.7854 0.1404 10.5999 0.2444 10.425 0.3588C7.1761 2.4492 3.93785 4.55 0.678391 6.6196C0.180198 6.9368 0 7.2748 0 7.8572C0.0211997 13.598 0.0105999 19.3336 0.0158998 25.0744C0.0158998 25.2616 0.0158998 25.4436 0.0264996 25.6308C0.0370995 25.8492 0.153698 25.974 0.381595 25.9844C0.545893 25.9948 0.71549 26 0.879788 26C7.6319 26 14.384 26 21.1361 26C21.3905 26 21.6396 25.9688 21.947 25.9532C21.9629 25.6672 21.9894 25.4436 21.9894 25.2148C21.9894 19.3856 21.9894 13.5512 22 7.722C22 7.2228 21.8304 6.9316 21.4011 6.6612V6.656ZM13.2869 9.8696C13.5042 9.6408 13.7851 9.5212 14.1349 9.5212C14.4847 9.5212 14.7762 9.6356 14.9935 9.8696C15.2161 10.1036 15.3221 10.3948 15.3221 10.7484C15.3221 11.102 15.2108 11.3984 14.9935 11.6324C14.7762 11.8664 14.4847 11.9808 14.1349 11.9808C13.7851 11.9808 13.5042 11.8664 13.2869 11.6324C13.0696 11.4036 12.9583 11.1072 12.9583 10.7432C12.9583 10.3792 13.0696 10.0932 13.2869 9.8644V9.8696ZM7.0012 9.8696C7.2185 9.6408 7.4994 9.5212 7.84919 9.5212C8.19899 9.5212 8.49049 9.6356 8.70778 9.8696C8.92508 10.1036 9.03638 10.3948 9.03638 10.7484C9.03638 11.102 8.92508 11.3984 8.70778 11.6324C8.48519 11.8664 8.19899 11.9808 7.84919 11.9808C7.4994 11.9808 7.2185 11.8664 7.0012 11.6324C6.78391 11.4036 6.67261 11.1072 6.67261 10.7432C6.67261 10.3792 6.78391 10.0932 7.0012 9.8644V9.8696ZM17.3096 15.5896C16.5146 16.1928 15.5924 16.666 14.5377 16.9988C13.483 17.3316 12.3912 17.5084 11.257 17.524H10.9126C9.75717 17.524 8.64418 17.3628 7.5736 17.0352C6.50301 16.7076 5.55962 16.2396 4.73814 15.626C3.92195 15.0124 3.35485 14.3572 3.04746 13.6604L4.22404 13.2392C4.76994 13.9516 5.61792 14.5132 6.75741 14.924C7.89689 15.3348 9.21128 15.548 10.6953 15.5636H11.1033C12.635 15.5636 13.9812 15.3608 15.1472 14.95C16.3132 14.5392 17.1877 13.9672 17.7707 13.234L18.9472 13.6552C18.6451 14.3364 18.0993 14.9812 17.3043 15.5896H17.3096Z" fill="#BFBFBF"/>
</svg>
