<svg width="15" height="15" viewBox="0 0 15 15" fill="none" xmlns="http://www.w3.org/2000/svg">
<g clip-path="url(#clip0_367_573)">
<path d="M7.00397 14.64C3.1436 14.64 0.00396729 11.5003 0.00396729 7.63995C0.00396729 3.77958 3.1436 0.639954 7.00397 0.639954C10.8643 0.639954 14.004 3.77958 14.004 7.63995C14.004 11.5003 10.8643 14.64 7.00397 14.64ZM7.00397 1.67699C3.71656 1.67699 1.041 4.35255 1.041 7.63995C1.041 10.9274 3.71656 13.6029 7.00397 13.6029C10.2914 13.6029 12.9669 10.9274 12.9669 7.63995C12.9669 4.35255 10.2914 1.67699 7.00397 1.67699Z" fill="#A4A4A4"/>
<path d="M7.77916 3.75104H6.23138V5.02659H7.77916V3.75104Z" fill="#A4A4A4"/>
<path d="M7.77916 5.89771H6.23138V11.5288H7.77916V5.89771Z" fill="#A4A4A4"/>
</g>
<defs>
<clipPath id="clip0_367_573">
<rect width="14" height="14" fill="white" transform="translate(0.00396729 0.639954)"/>
</clipPath>
</defs>
</svg>
